<?xml version="1.0" standalone="no"?>
<!DOCTYPE svg PUBLIC "-//W3C//DTD SVG 1.0//EN" "http://www.w3.org/TR/2001/REC-SVG-20010904/DTD/svg10.dtd">
<svg xmlns="http://www.w3.org/2000/svg" version="1.1" xmlns:xlink="http://www.w3.org/1999/xlink" xmlns:svgjs="http://svgjs.dev/svgjs" viewBox="0 0 1152 1152" xmlns:inkscape ="http://www.inkscape.org/namespaces/inkscape" >
<desc>CopyRight:SVG Design Editor;
configurationStart;Unit=smInches;Dpi=96;Division=4;Grid=True;Zoom=0.5;CanvasW=1152;CanvasH=1152;configurationEnd;</desc>
<defs xmlns:inkscape ="http://www.inkscape.org/namespaces/inkscape" >
<clipPath id="97" xmlns:inkscape ="http://www.inkscape.org/namespaces/inkscape" >
<path d=" M 2.42794189453125 -0.08474999999999988 h 0.938167089921669 v 1.1984999999999997 h -0.938167089921669 Z" xmlns:inkscape ="http://www.inkscape.org/namespaces/inkscape" >
</path>
</clipPath>
<clipPath id="98" xmlns:inkscape ="http://www.inkscape.org/namespaces/inkscape" >
<path d=" M 2.42794189453125 -0.08474999999999988 L 3.366108984452919 -0.08474999999999988 L 3.366108984452919 1.1137499999999998 L 2.42794189453125 1.1137499999999998 Z" xmlns:inkscape ="http://www.inkscape.org/namespaces/inkscape" >
</path>
</clipPath>
</defs>
<g isVisble = "True" inkscape:label = "test Default Layer" inkscape:groupmode = "layer" ><g id="group_1">
<g id="group_2">
<path style="fill:#ECECD9;stroke:none; stroke-width:1" d="m2.83,0.24c0,0 0,0 0,0c0,0 0,-0.01 0,-0.01c0,0 0,-0.01 0,-0.01c0,0 0,0 0,0l-0.06,-0.01c-0.01,0 -0.02,0.01 -0.02,0.02c0,0.01 0.01,0.02 0.02,0.02l0.06,-0.01z" fill-rule = "nonzero" clip-path = "url(#SvgjsClipPath1025222b9f54cd-693c-4f16-9402-18c874e5728e)" transform = "matrix(669.8533,0,0,669.8538,-1366.798,225.6038)" vector-effect="non-scaling-stroke" pen = "855.0513,855.0522" />
</g>
<g id="group_3">
<path style="fill:#ECECD9;stroke:none; stroke-width:1" d="m2.86,0.17c0.01,0 0.02,-0.01 0.03,-0.01c0,0 0,0 0,0l-0.01,-0.06c0,-0.01 -0.02,-0.02 -0.03,-0.02l0,0c-0.01,0 -0.02,0.02 -0.01,0.03l0.03,0.06c0,0 0,0 0,0l0,0z" fill-rule = "nonzero" clip-path = "url(#SvgjsClipPath1025222b9f54cd-693c-4f16-9402-18c874e5728e)" transform = "matrix(669.8531,0,0,669.8536,-1366.799,225.604)" vector-effect="non-scaling-stroke" pen = "855.0515,855.0519" />
</g>
<g id="group_4">
<path style="fill:#ECECD9;stroke:none; stroke-width:1" d="m2.78,0.17l0.05,0.03c0,0 0,0 0,0c0,-0.01 0.01,-0.02 0.02,-0.02c0,0 0,0 0,0l-0.04,-0.04c-0.01,-0.01 -0.03,-0.01 -0.03,0l0,0c-0.01,0.01 0,0.03 0.01,0.03l0,0z" fill-rule = "nonzero" clip-path = "url(#SvgjsClipPath1025222b9f54cd-693c-4f16-9402-18c874e5728e)" transform = "matrix(669.8532,0,0,669.853,-1366.798,225.6038)" vector-effect="non-scaling-stroke" pen = "855.0513,855.0512" />
</g>
<g id="group_5">
<path style="fill:#ECECD9;stroke:none; stroke-width:1" d="m2.96,0.2c0,0 0,0 0,0l0.05,-0.03c0.01,-0.01 0.01,-0.02 0.01,-0.03l0,0c-0.01,-0.01 -0.02,-0.01 -0.03,0l-0.04,0.04c0,0 0,0 0,0c0.01,0.01 0.01,0.01 0.02,0.02l0,0z" fill-rule = "nonzero" clip-path = "url(#SvgjsClipPath1025222b9f54cd-693c-4f16-9402-18c874e5728e)" transform = "matrix(669.8531,0,0,669.8531,-1366.798,225.6041)" vector-effect="non-scaling-stroke" pen = "855.0513,855.0514" />
</g>
<g id="group_6">
<path style="fill:#ECECD9;stroke:none; stroke-width:1" d="m2.93,0.17c0,0 0,0 0,0l0.03,-0.06c0,-0.01 0,-0.03 -0.01,-0.03l0,0c-0.01,0 -0.03,0 -0.03,0.02l-0.01,0.06c0,0 0,0 0,0c0.01,0 0.02,0 0.03,0.01l0,0z" fill-rule = "nonzero" clip-path = "url(#SvgjsClipPath1025222b9f54cd-693c-4f16-9402-18c874e5728e)" transform = "matrix(669.8529,0,0,669.8531,-1366.798,225.604)" vector-effect="non-scaling-stroke" pen = "855.0509,855.0513" />
</g>
<g id="group_7">
<path style="fill:#ECECD9;stroke:none; stroke-width:1" d="m3.01,0.28l-0.05,-0.03c0,0 0,0 0,0c0,0.01 -0.01,0.02 -0.02,0.02c0,0 0,0 0,0l0.04,0.04c0.01,0.01 0.03,0.01 0.03,0c0.01,-0.01 0,-0.03 -0.01,-0.03l0,0z" fill-rule = "nonzero" clip-path = "url(#SvgjsClipPath1025222b9f54cd-693c-4f16-9402-18c874e5728e)" transform = "matrix(669.853,0,0,669.8531,-1366.799,225.6039)" vector-effect="non-scaling-stroke" pen = "855.0513,855.0516" />
</g>
<g id="group_8">
<path style="fill:#ECECD9;stroke:none; stroke-width:1" d="m3.02,0.2l-0.06,0.01c0,0 0,0 0,0c0,0 0,0.01 0,0.01c0,0 0,0.01 0,0.01c0,0 0,0 0,0l0.06,0.01c0.01,0 0.02,-0.01 0.02,-0.02c0,-0.01 -0.01,-0.02 -0.02,-0.02z" fill-rule = "nonzero" clip-path = "url(#SvgjsClipPath1025222b9f54cd-693c-4f16-9402-18c874e5728e)" transform = "matrix(669.8533,0,0,669.8542,-1366.799,225.6038)" vector-effect="non-scaling-stroke" pen = "855.0513,855.0524" />
</g>
<g id="group_9">
<path style="fill:#ECECD9;stroke:none; stroke-width:1" d="m2.84,0.25c0,0 0,0 0,0l-0.05,0.03c-0.01,0.01 -0.01,0.02 -0.01,0.03l0,0c0.01,0.01 0.02,0.01 0.03,0l0.04,-0.04c0,0 0,0 0,0c-0.01,-0.01 -0.01,-0.01 -0.02,-0.02l0,0z" fill-rule = "nonzero" clip-path = "url(#SvgjsClipPath1025222b9f54cd-693c-4f16-9402-18c874e5728e)" transform = "matrix(669.8531,0,0,669.8535,-1366.799,225.604)" vector-effect="non-scaling-stroke" pen = "855.0515,855.0516" />
</g>
<g id="group_10">
<path style="fill:#ECECD9;stroke:none; stroke-width:1" d="m2.93,0.28c-0.01,0 -0.02,0.01 -0.03,0.01c0,0 0,0 0,0l0.01,0.06c0,0.01 0.02,0.02 0.03,0.02c0.01,0 0.02,-0.02 0.01,-0.03l-0.03,-0.06c0,0 0,0 0,0l0,0z" fill-rule = "nonzero" clip-path = "url(#SvgjsClipPath1025222b9f54cd-693c-4f16-9402-18c874e5728e)" transform = "matrix(669.8527,0,0,669.8538,-1366.798,225.604)" vector-effect="non-scaling-stroke" pen = "855.0507,855.052" />
</g>
<g id="group_11">
<path style="fill:#ECECD9;stroke:none; stroke-width:1" d="m2.86,0.28c0,0 0,0 0,0l-0.03,0.06c0,0.01 0,0.03 0.01,0.03l0,0c0.01,0 0.03,0 0.03,-0.02l0.01,-0.06c0,0 0,0 0,0c-0.01,0 -0.02,0 -0.03,-0.01l0,0z" fill-rule = "nonzero" clip-path = "url(#SvgjsClipPath1025222b9f54cd-693c-4f16-9402-18c874e5728e)" transform = "matrix(669.8533,0,0,669.8531,-1366.799,225.604)" vector-effect="non-scaling-stroke" pen = "855.0511,855.0515" />
</g>
<g id="group_12">
<path style="fill:#3A868F;stroke:none; stroke-width:1" d="m2.93,0.22c0,0.02 -0.02,0.04 -0.04,0.04c-0.02,0 -0.04,-0.02 -0.04,-0.04c0,-0.02 0.02,-0.04 0.04,-0.04c0.02,0 0.04,0.02 0.04,0.04z" fill-rule = "nonzero" clip-path = "url(#SvgjsClipPath1025222b9f54cd-693c-4f16-9402-18c874e5728e)" transform = "matrix(669.8525,0,0,669.8537,-1366.799,225.6041)" vector-effect="non-scaling-stroke" pen = "855.0505,855.0519" />
</g>
<g id="group_13">
<path style="fill:#ECECD9;stroke:none; stroke-width:1" d="m2.9,-0.08c-0.02,0 -0.04,0.02 -0.04,0.04c0,0.02 0.01,0.03 0.03,0.04c0,-0.02 0,-0.02 0.01,-0.02c0,0 0.01,0.01 0.01,0.02c0.02,0 0.03,-0.02 0.03,-0.04c0,-0.02 -0.02,-0.04 -0.04,-0.04l0,0z" fill-rule = "nonzero" clip-path = "url(#SvgjsClipPath1025222b9f54cd-693c-4f16-9402-18c874e5728e)" transform = "matrix(669.8533,0,0,669.8531,-1366.799,225.6038)" vector-effect="non-scaling-stroke" pen = "855.0516,855.0508" />
</g>
<g id="group_14">
<path style="fill:#225777;stroke:none; stroke-width:1" d="m2.9,0l-0.01,0l0,0.05l0.01,0l0,-0.05z" fill-rule = "nonzero" clip-path = "url(#SvgjsClipPath1025222b9f54cd-693c-4f16-9402-18c874e5728e)" transform = "matrix(669.8535,0,0,669.8535,-1366.798,225.6039)" vector-effect="non-scaling-stroke" pen = "855.0519,855.0515" />
</g>
<g id="group_15">
<path style="fill:#3A868F;stroke:none; stroke-width:1" d="m2.92,0.71c0,0.01 -0.01,0.02 -0.02,0.02c-0.01,0 -0.02,-0.01 -0.02,-0.02c0,-0.01 0.01,-0.02 0.02,-0.02c0.01,0 0.02,0.01 0.02,0.02z" fill-rule = "nonzero" clip-path = "url(#SvgjsClipPath1025222b9f54cd-693c-4f16-9402-18c874e5728e)" transform = "matrix(669.8531,0,0,669.8535,-1366.799,225.604)" vector-effect="non-scaling-stroke" pen = "855.0515,855.0519" />
</g>
<g id="group_16">
<path style="fill:#ECECD9;stroke:none; stroke-width:1" d="m2.82,-0.01c0,0.01 -0.01,0.02 -0.02,0.02c-0.01,0 -0.02,-0.01 -0.02,-0.02c0,-0.01 0.01,-0.02 0.02,-0.02c0.01,0 0.02,0.01 0.02,0.02z" fill-rule = "nonzero" clip-path = "url(#SvgjsClipPath1025222b9f54cd-693c-4f16-9402-18c874e5728e)" transform = "matrix(669.8538,0,0,669.8535,-1366.799,225.6039)" vector-effect="non-scaling-stroke" pen = "855.0519,855.0519" />
</g>
<g id="group_17">
<path style="fill:#ECECD9;stroke:none; stroke-width:1" d="m2.73,-0.04c0,0.01 -0.01,0.02 -0.02,0.02c-0.01,0 -0.02,-0.01 -0.02,-0.02c0,-0.01 0.01,-0.02 0.02,-0.02c0.01,0 0.02,0.01 0.02,0.02z" fill-rule = "nonzero" clip-path = "url(#SvgjsClipPath1025222b9f54cd-693c-4f16-9402-18c874e5728e)" transform = "matrix(669.8535,0,0,669.8534,-1366.8,225.604)" vector-effect="non-scaling-stroke" pen = "855.0511,855.0512" />
</g>
<g id="group_18">
<path style="fill:#ECECD9;stroke:none; stroke-width:1" d="m2.61,0.03c0,0.01 -0.01,0.02 -0.02,0.02c-0.01,0 -0.02,-0.01 -0.02,-0.02c0,-0.01 0.01,-0.02 0.02,-0.02c0.01,0 0.02,0.01 0.02,0.02z" fill-rule = "nonzero" clip-path = "url(#SvgjsClipPath1025222b9f54cd-693c-4f16-9402-18c874e5728e)" transform = "matrix(669.8533,0,0,669.8531,-1366.799,225.6039)" vector-effect="non-scaling-stroke" pen = "855.0516,855.0511" />
</g>
<g id="group_19">
<path style="fill:#ECECD9;stroke:none; stroke-width:1" d="m2.5,0.2c0,0.01 0,0.01 -0.01,0.01c-0.01,0 -0.01,0 -0.01,-0.01c0,-0.01 0,-0.01 0.01,-0.01c0.01,0 0.01,0 0.01,0.01z" fill-rule = "nonzero" clip-path = "url(#SvgjsClipPath1025222b9f54cd-693c-4f16-9402-18c874e5728e)" transform = "matrix(669.8539,0,0,669.8536,-1366.799,225.604)" vector-effect="non-scaling-stroke" pen = "855.0518,855.0516" />
</g>
<g id="group_20">
<path style="fill:#ECECD9;stroke:none; stroke-width:1" d="m2.49,0.37c0,0.01 -0.01,0.02 -0.02,0.02c-0.01,0 -0.02,-0.01 -0.02,-0.02c0,-0.01 0.01,-0.02 0.02,-0.02c0.01,0 0.02,0.01 0.02,0.02z" fill-rule = "nonzero" clip-path = "url(#SvgjsClipPath1025222b9f54cd-693c-4f16-9402-18c874e5728e)" transform = "matrix(669.8531,0,0,669.854,-1366.798,225.604)" vector-effect="non-scaling-stroke" pen = "855.0515,855.0525" />
</g>
<g id="group_21">
<path style="fill:#225777;stroke:none; stroke-width:1" d="m2.85,0.04c0,0 -0.01,-0.02 -0.02,-0.03c0,0 -0.01,0.01 -0.01,0.01c0,0.01 0.02,0.03 0.02,0.03c0,0 0.01,0 0.01,-0.01l0,0z" fill-rule = "nonzero" clip-path = "url(#SvgjsClipPath1025222b9f54cd-693c-4f16-9402-18c874e5728e)" transform = "matrix(669.8526,0,0,669.8539,-1366.798,225.604)" vector-effect="non-scaling-stroke" pen = "855.051,855.052" />
</g>
<g id="group_22">
<path style="fill:#225777;stroke:none; stroke-width:1" d="m2.74,0.02c0.02,0 0.05,0.03 0.06,0.06c0,0 -0.01,0 -0.01,0c0,-0.01 -0.03,-0.04 -0.05,-0.05c0,0 0,-0.01 0,-0.01l0,0l0,0z" fill-rule = "nonzero" clip-path = "url(#SvgjsClipPath1025222b9f54cd-693c-4f16-9402-18c874e5728e)" transform = "matrix(669.8536,0,0,669.8535,-1366.799,225.604)" vector-effect="non-scaling-stroke" pen = "855.0515,855.0518" />
</g>
<g id="group_23">
<path style="fill:#225777;stroke:none; stroke-width:1" d="m2.69,0.13c0,0 -0.01,0 0,0.01c0,0.01 0.01,0.04 0.02,0.05c0,0 0.01,0 0.01,0c0,-0.01 -0.02,-0.06 -0.02,-0.06z" fill-rule = "nonzero" clip-path = "url(#SvgjsClipPath1025222b9f54cd-693c-4f16-9402-18c874e5728e)" transform = "matrix(669.8526,0,0,669.8535,-1366.798,225.604)" vector-effect="non-scaling-stroke" pen = "855.0509,855.0519" />
</g>
<g id="group_24">
<path style="fill:#ECECD9;stroke:none; stroke-width:1" d="m2.68,0.11c0,0.01 0,0.03 -0.01,0.04c-0.01,0.01 -0.02,0 -0.03,0c0,-0.01 -0.01,-0.02 0,-0.02c0.01,-0.01 0.03,-0.01 0.04,-0.01z" fill-rule = "nonzero" clip-path = "url(#SvgjsClipPath1025222b9f54cd-693c-4f16-9402-18c874e5728e)" transform = "matrix(669.8534,0,0,669.8537,-1366.799,225.604)" vector-effect="non-scaling-stroke" pen = "855.0517,855.0516" />
</g>
<g id="group_25">
<path style="fill:#ECECD9;stroke:none; stroke-width:1" d="m2.67,0.1c-0.01,0.01 -0.02,0.02 -0.04,0.02c-0.01,0 -0.02,-0.02 -0.02,-0.02c0,-0.01 0.01,-0.02 0.02,-0.01c0.01,0 0.03,0.01 0.03,0.02l0,0z" fill-rule = "nonzero" clip-path = "url(#SvgjsClipPath1025222b9f54cd-693c-4f16-9402-18c874e5728e)" transform = "matrix(669.853,0,0,669.8535,-1366.799,225.6039)" vector-effect="non-scaling-stroke" pen = "855.0515,855.0513" />
</g>
<g id="group_26">
<path style="fill:#ECECD9;stroke:none; stroke-width:1" d="m2.7,0.11c0.01,0 0.03,0 0.03,0.01c0.01,0.01 0,0.02 0,0.02c-0.01,0 -0.01,0.01 -0.02,0c-0.01,-0.01 -0.01,-0.02 -0.01,-0.03z" fill-rule = "nonzero" clip-path = "url(#SvgjsClipPath1025222b9f54cd-693c-4f16-9402-18c874e5728e)" transform = "matrix(669.8532,0,0,669.8532,-1366.799,225.604)" vector-effect="non-scaling-stroke" pen = "855.0513,855.0516" />
</g>
<g id="group_27">
<path style="fill:#ECECD9;stroke:none; stroke-width:1" d="m2.7,0.09c0,-0.01 0.01,-0.03 0.03,-0.03c0.01,0 0.02,0.01 0.03,0.02c0,0.01 0,0.02 -0.01,0.02c-0.01,0 -0.03,0 -0.04,0l0,0z" fill-rule = "nonzero" clip-path = "url(#SvgjsClipPath1025222b9f54cd-693c-4f16-9402-18c874e5728e)" transform = "matrix(669.8525,0,0,669.8539,-1366.797,225.6039)" vector-effect="non-scaling-stroke" pen = "855.0507,855.0523" />
</g>
<g id="group_28">
<path style="fill:#ECECD9;stroke:none; stroke-width:1" d="m2.69,0.09c-0.01,0 -0.03,-0.02 -0.04,-0.03c0,-0.02 0.01,-0.03 0.02,-0.03c0.01,0 0.02,0 0.03,0.02c0,0.01 0,0.04 -0.01,0.05l0,0l0,0z" fill-rule = "nonzero" clip-path = "url(#SvgjsClipPath1025222b9f54cd-693c-4f16-9402-18c874e5728e)" transform = "matrix(669.8533,0,0,669.8538,-1366.798,225.604)" vector-effect="non-scaling-stroke" pen = "855.0514,855.0518" />
</g>
<g id="group_29">
<path style="fill:#225777;stroke:none; stroke-width:1" d="m2.85,0.4l0.02,0c0.01,0.04 0.01,0.09 0.01,0.11l0,0.16l-0.01,0c0,-0.11 0,-0.12 0,-0.15c0,-0.05 -0.02,-0.09 -0.02,-0.12z" fill-rule = "nonzero" clip-path = "url(#SvgjsClipPath1025222b9f54cd-693c-4f16-9402-18c874e5728e)" transform = "matrix(669.8531,0,0,669.8533,-1366.799,225.604)" vector-effect="non-scaling-stroke" pen = "855.0517,855.0515" />
</g>
<g id="group_30">
<path style="fill:#225777;stroke:none; stroke-width:1" d="m2.84,0.53l-0.01,0.01c0.01,0.01 0.02,0.02 0.02,0.03c0,0 0.01,0 0.01,0c0,-0.01 -0.01,-0.02 -0.02,-0.04z" fill-rule = "nonzero" clip-path = "url(#SvgjsClipPath1025222b9f54cd-693c-4f16-9402-18c874e5728e)" transform = "matrix(669.8531,0,0,669.8538,-1366.799,225.6041)" vector-effect="non-scaling-stroke" pen = "855.0511,855.0517" />
</g>
<g id="group_31">
<path style="fill:#225777;stroke:none; stroke-width:1" d="m2.85,0.63c-0.02,-0.03 -0.06,-0.07 -0.12,-0.09c-0.05,-0.02 -0.1,-0.04 -0.14,-0.05c-0.01,0 0,0.01 0,0.01c0.03,0.01 0.07,0.01 0.14,0.05c0.07,0.03 0.09,0.07 0.11,0.08c0,0.01 0.01,0 0.01,0l0,0z" fill-rule = "nonzero" clip-path = "url(#SvgjsClipPath1025222b9f54cd-693c-4f16-9402-18c874e5728e)" transform = "matrix(669.8531,0,0,669.8535,-1366.798,225.604)" vector-effect="non-scaling-stroke" pen = "855.051,855.0517" />
</g>
<g id="group_32">
<path style="fill:#ECECD9;stroke:none; stroke-width:1" d="m2.84,0.78l0,0c0,0.05 0,0.11 0.02,0.16c0.01,0.03 0.02,0.05 0.03,0.07c0,0 0,0 0,0c0,-0.02 -0.01,-0.09 -0.01,-0.13l0,-0.12c0,0 -0.01,0.01 -0.04,0.03l0,0z" fill-rule = "nonzero" clip-path = "url(#SvgjsClipPath1025222b9f54cd-693c-4f16-9402-18c874e5728e)" transform = "matrix(669.8536,0,0,669.8536,-1366.799,225.604)" vector-effect="non-scaling-stroke" pen = "855.0516,855.0519" />
</g>
<g id="group_33">
<path style="fill:#ECECD9;stroke:none; stroke-width:1" d="m2.83,0.89c0,-0.02 -0.01,-0.08 -0.01,-0.1c-0.01,0.01 -0.02,0.01 -0.03,0.02c0,0.04 0.01,0.08 0.01,0.1c0,0.02 0.02,0.07 0.06,0.09c-0.02,-0.04 -0.03,-0.07 -0.03,-0.11l0,0z" fill-rule = "nonzero" clip-path = "url(#SvgjsClipPath1025222b9f54cd-693c-4f16-9402-18c874e5728e)" transform = "matrix(669.8533,0,0,669.8537,-1366.798,225.6039)" vector-effect="non-scaling-stroke" pen = "855.0513,855.0518" />
</g>
<g id="group_34">
<path style="fill:#ECECD9;stroke:none; stroke-width:1" d="m2.86,0.71l-0.11,0l0,-0.02l0.11,0c0,0 0,-0.01 0.01,-0.01c-0.04,-0.02 -0.05,-0.03 -0.08,-0.04c-0.01,0 -0.03,0 -0.04,0c-0.02,0 -0.03,0.01 -0.03,0.03l0,0.06c0,0.03 0.02,0.06 0.05,0.06c0,0 0,0 0,0c0.03,0 0.05,-0.01 0.05,-0.02c0.01,0 0.03,-0.02 0.04,-0.03c-0.01,-0.01 -0.01,-0.02 -0.01,-0.03l0,0z" fill-rule = "nonzero" clip-path = "url(#SvgjsClipPath1025222b9f54cd-693c-4f16-9402-18c874e5728e)" transform = "matrix(669.8534,0,0,669.8542,-1366.799,225.604)" vector-effect="non-scaling-stroke" pen = "855.0515,855.0527" />
</g>
<g id="group_35">
<path style="fill:#173054;stroke:none; stroke-width:1" d="m2.77,0.59c-0.04,-0.01 -0.06,0 -0.09,0.03c0.03,0 0.06,0 0.09,-0.03z" fill-rule = "nonzero" clip-path = "url(#SvgjsClipPath1025222b9f54cd-693c-4f16-9402-18c874e5728e)" transform = "matrix(669.8541,0,0,669.8533,-1366.799,225.604)" vector-effect="non-scaling-stroke" pen = "855.052,855.0516" />
</g>
<g id="group_36">
<path style="fill:#173054;stroke:none; stroke-width:1" d="m2.72,0.56c-0.01,0.01 -0.05,0.04 -0.1,0.04c0.01,-0.01 0.03,-0.06 0.1,-0.04z" fill-rule = "nonzero" clip-path = "url(#SvgjsClipPath1025222b9f54cd-693c-4f16-9402-18c874e5728e)" transform = "matrix(669.8541,0,0,669.854,-1366.8,225.604)" vector-effect="non-scaling-stroke" pen = "855.0522,855.0524" />
</g>
<g id="group_37">
<path style="fill:#173054;stroke:none; stroke-width:1" d="m2.64,0.53c-0.02,0.01 -0.05,0.06 -0.14,0.03c0.02,-0.03 0.06,-0.07 0.14,-0.03z" fill-rule = "nonzero" clip-path = "url(#SvgjsClipPath1025222b9f54cd-693c-4f16-9402-18c874e5728e)" transform = "matrix(669.853,0,0,669.8539,-1366.798,225.6039)" vector-effect="non-scaling-stroke" pen = "855.0513,855.052" />
</g>
<g id="group_38">
<path style="fill:#173054;stroke:none; stroke-width:1" d="m2.58,0.49c-0.05,0 -0.11,0.02 -0.15,-0.07c0.06,0 0.09,0.01 0.15,0.07z" fill-rule = "nonzero" clip-path = "url(#SvgjsClipPath1025222b9f54cd-693c-4f16-9402-18c874e5728e)" transform = "matrix(669.8535,0,0,669.8535,-1366.8,225.6038)" vector-effect="non-scaling-stroke" pen = "855.0518,855.0513" />
</g>
<g id="group_39">
<path style="fill:#173054;stroke:none; stroke-width:1" d="m2.6,0.47c0,-0.03 -0.02,-0.06 -0.07,-0.07c0.01,0.03 0.03,0.06 0.07,0.07z" fill-rule = "nonzero" clip-path = "url(#SvgjsClipPath1025222b9f54cd-693c-4f16-9402-18c874e5728e)" transform = "matrix(669.8536,0,0,669.8531,-1366.799,225.6039)" vector-effect="non-scaling-stroke" pen = "855.0516,855.051" />
</g>
<g id="group_40">
<path style="fill:#173054;stroke:none; stroke-width:1" d="m2.72,0.5c0,-0.02 -0.01,-0.03 -0.03,-0.04c0,0.01 0,0.04 0.03,0.04z" fill-rule = "nonzero" clip-path = "url(#SvgjsClipPath1025222b9f54cd-693c-4f16-9402-18c874e5728e)" transform = "matrix(669.8528,0,0,669.8538,-1366.797,225.604)" vector-effect="non-scaling-stroke" pen = "855.0512,855.0524" />
</g>
<g id="group_41">
<path style="fill:#173054;stroke:none; stroke-width:1" d="m2.66,0.48c0,-0.02 0.01,-0.04 -0.03,-0.06c0,0.03 0,0.05 0.03,0.06z" fill-rule = "nonzero" clip-path = "url(#SvgjsClipPath1025222b9f54cd-693c-4f16-9402-18c874e5728e)" transform = "matrix(669.8538,0,0,669.8528,-1366.799,225.604)" vector-effect="non-scaling-stroke" pen = "855.0519,855.051" />
</g>
<g id="group_42">
<path style="fill:#173054;stroke:none; stroke-width:1" d="m2.82,0.53c-0.02,-0.01 -0.02,-0.02 -0.05,-0.02c0.01,0.03 0.03,0.03 0.05,0.02z" fill-rule = "nonzero" clip-path = "url(#SvgjsClipPath1025222b9f54cd-693c-4f16-9402-18c874e5728e)" transform = "matrix(669.8527,0,0,669.8534,-1366.799,225.6041)" vector-effect="non-scaling-stroke" pen = "855.0507,855.0515" />
</g>
<g id="group_43">
<path style="fill:#173054;stroke:none; stroke-width:1" d="m2.83,0.51c0.01,-0.02 0,-0.03 -0.01,-0.05c-0.01,0.02 -0.01,0.03 0.01,0.05z" fill-rule = "nonzero" clip-path = "url(#SvgjsClipPath1025222b9f54cd-693c-4f16-9402-18c874e5728e)" transform = "matrix(669.854,0,0,669.8541,-1366.8,225.604)" vector-effect="non-scaling-stroke" pen = "855.0524,855.0523" />
</g>
<g id="group_44">
<path style="fill:#173054;stroke:none; stroke-width:1" d="m2.79,0.47c-0.02,-0.02 -0.03,-0.03 -0.05,-0.01c0.01,0.02 0.03,0.02 0.05,0.01z" fill-rule = "nonzero" clip-path = "url(#SvgjsClipPath1025222b9f54cd-693c-4f16-9402-18c874e5728e)" transform = "matrix(669.853,0,0,669.8541,-1366.798,225.604)" vector-effect="non-scaling-stroke" pen = "855.0507,855.0521" />
</g>
<g id="group_45">
<path style="fill:#173054;stroke:none; stroke-width:1" d="m2.8,0.46c0.02,-0.03 0.01,-0.06 -0.01,-0.08c-0.01,0.03 -0.01,0.06 0.01,0.08z" fill-rule = "nonzero" clip-path = "url(#SvgjsClipPath1025222b9f54cd-693c-4f16-9402-18c874e5728e)" transform = "matrix(669.8534,0,0,669.8537,-1366.799,225.6041)" vector-effect="non-scaling-stroke" pen = "855.0515,855.0522" />
</g>
<g id="group_46">
<path style="fill:#173054;stroke:none; stroke-width:1" d="m2.76,0.41c-0.01,-0.04 -0.03,-0.05 -0.06,-0.06c0,0.04 0.04,0.05 0.06,0.06z" fill-rule = "nonzero" clip-path = "url(#SvgjsClipPath1025222b9f54cd-693c-4f16-9402-18c874e5728e)" transform = "matrix(669.8538,0,0,669.8533,-1366.8,225.6041)" vector-effect="non-scaling-stroke" pen = "855.0523,855.0515" />
</g>
<g id="group_47">
<path style="fill:#173054;stroke:none; stroke-width:1" d="m2.74,0.42c-0.02,-0.01 -0.03,-0.04 -0.09,-0.04c0.01,0.03 0.04,0.05 0.09,0.04z" fill-rule = "nonzero" clip-path = "url(#SvgjsClipPath1025222b9f54cd-693c-4f16-9402-18c874e5728e)" transform = "matrix(669.8532,0,0,669.8538,-1366.798,225.6041)" vector-effect="non-scaling-stroke" pen = "855.0514,855.0522" />
</g>
<g id="group_48">
<path style="fill:#173054;stroke:none; stroke-width:1" d="m2.63,0.37c-0.02,-0.01 -0.03,-0.02 -0.08,-0.02c0.02,0.03 0.06,0.03 0.08,0.02z" fill-rule = "nonzero" clip-path = "url(#SvgjsClipPath1025222b9f54cd-693c-4f16-9402-18c874e5728e)" transform = "matrix(669.8538,0,0,669.8535,-1366.798,225.604)" vector-effect="non-scaling-stroke" pen = "855.0516,855.0519" />
</g>
<g id="group_49">
<path style="fill:#173054;stroke:none; stroke-width:1" d="m2.69,0.34c-0.03,-0.04 -0.04,-0.05 -0.09,-0.05c0.03,0.05 0.07,0.05 0.09,0.05z" fill-rule = "nonzero" clip-path = "url(#SvgjsClipPath1025222b9f54cd-693c-4f16-9402-18c874e5728e)" transform = "matrix(669.853,0,0,669.8534,-1366.797,225.6038)" vector-effect="non-scaling-stroke" pen = "855.0505,855.0513" />
</g>
<g id="group_50">
<path style="fill:#173054;stroke:none; stroke-width:1" d="m2.71,0.32c0.01,-0.05 0,-0.07 -0.03,-0.11c-0.02,0.05 0.01,0.08 0.03,0.11z" fill-rule = "nonzero" clip-path = "url(#SvgjsClipPath1025222b9f54cd-693c-4f16-9402-18c874e5728e)" transform = "matrix(669.854,0,0,669.8536,-1366.8,225.6039)" vector-effect="non-scaling-stroke" pen = "855.0521,855.0519" />
</g>
<g id="group_51">
<path style="fill:#173054;stroke:none; stroke-width:1" d="m2.59,0.33c-0.02,-0.03 -0.04,-0.07 -0.11,-0.06c0.04,0.06 0.08,0.05 0.11,0.06z" fill-rule = "nonzero" clip-path = "url(#SvgjsClipPath1025222b9f54cd-693c-4f16-9402-18c874e5728e)" transform = "matrix(669.8534,0,0,669.8539,-1366.799,225.604)" vector-effect="non-scaling-stroke" pen = "855.0516,855.052" />
</g>
<g id="group_52">
<path style="fill:#173054;stroke:none; stroke-width:1" d="m2.64,0.26c-0.02,-0.02 -0.03,-0.03 -0.07,-0.03c0.02,0.03 0.06,0.03 0.07,0.03z" fill-rule = "nonzero" clip-path = "url(#SvgjsClipPath1025222b9f54cd-693c-4f16-9402-18c874e5728e)" transform = "matrix(669.853,0,0,669.8525,-1366.798,225.6039)" vector-effect="non-scaling-stroke" pen = "855.051,855.0511" />
</g>
<g id="group_53">
<path style="fill:#173054;stroke:none; stroke-width:1" d="m2.64,0.22c-0.01,-0.08 -0.07,-0.11 -0.11,-0.11c0,0.12 0.08,0.09 0.11,0.11z" fill-rule = "nonzero" clip-path = "url(#SvgjsClipPath1025222b9f54cd-693c-4f16-9402-18c874e5728e)" transform = "matrix(669.8535,0,0,669.8535,-1366.799,225.604)" vector-effect="non-scaling-stroke" pen = "855.0516,855.0515" />
</g>
<g id="group_54">
<path style="fill:#ECECD9;stroke:none; stroke-width:1" d="m3.01,-0.01c0,0.01 -0.01,0.02 -0.02,0.02c-0.01,0 -0.02,-0.01 -0.02,-0.02c0,-0.01 0.01,-0.02 0.02,-0.02c0.01,0 0.02,0.01 0.02,0.02z" fill-rule = "nonzero" clip-path = "url(#SvgjsClipPath1025222b9f54cd-693c-4f16-9402-18c874e5728e)" transform = "matrix(669.8536,0,0,669.8535,-1366.799,225.6039)" vector-effect="non-scaling-stroke" pen = "855.0519,855.0519" />
</g>
<g id="group_55">
<path style="fill:#ECECD9;stroke:none; stroke-width:1" d="m3.1,-0.04c0,0.01 -0.01,0.02 -0.02,0.02c-0.01,0 -0.02,-0.01 -0.02,-0.02c0,-0.01 0.01,-0.02 0.02,-0.02c0.01,0 0.02,0.01 0.02,0.02z" fill-rule = "nonzero" clip-path = "url(#SvgjsClipPath1025222b9f54cd-693c-4f16-9402-18c874e5728e)" transform = "matrix(669.8528,0,0,669.8534,-1366.798,225.604)" vector-effect="non-scaling-stroke" pen = "855.051,855.0512" />
</g>
<g id="group_56">
<path style="fill:#ECECD9;stroke:none; stroke-width:1" d="m3.22,0.03c0,0.01 -0.01,0.02 -0.02,0.02c-0.01,0 -0.02,-0.01 -0.02,-0.02c0,-0.01 0.01,-0.02 0.02,-0.02c0.01,0 0.02,0.01 0.02,0.02z" fill-rule = "nonzero" clip-path = "url(#SvgjsClipPath1025222b9f54cd-693c-4f16-9402-18c874e5728e)" transform = "matrix(669.8536,0,0,669.8531,-1366.799,225.6039)" vector-effect="non-scaling-stroke" pen = "855.0516,855.0511" />
</g>
<g id="group_57">
<path style="fill:#ECECD9;stroke:none; stroke-width:1" d="m3.31,0.2c0,0.01 0,0.01 -0.01,0.01c-0.01,0 -0.01,0 -0.01,-0.01c0,-0.01 0,-0.01 0.01,-0.01c0.01,0 0.01,0 0.01,0.01z" fill-rule = "nonzero" clip-path = "url(#SvgjsClipPath1025222b9f54cd-693c-4f16-9402-18c874e5728e)" transform = "matrix(669.8542,0,0,669.8536,-1366.799,225.604)" vector-effect="non-scaling-stroke" pen = "855.0522,855.0516" />
</g>
<g id="group_58">
<path style="fill:#ECECD9;stroke:none; stroke-width:1" d="m3.33,0.37c0,0.01 -0.01,0.02 -0.02,0.02c-0.01,0 -0.02,-0.01 -0.02,-0.02c0,-0.01 0.01,-0.02 0.02,-0.02c0.01,0 0.02,0.01 0.02,0.02z" fill-rule = "nonzero" clip-path = "url(#SvgjsClipPath1025222b9f54cd-693c-4f16-9402-18c874e5728e)" transform = "matrix(669.8526,0,0,669.854,-1366.798,225.604)" vector-effect="non-scaling-stroke" pen = "855.051,855.0525" />
</g>
<g id="group_59">
<path style="fill:#225777;stroke:none; stroke-width:1" d="m2.94,0.04c0,0 0.01,-0.02 0.02,-0.03c0,0 0.01,0.01 0.01,0.01c0,0.01 -0.02,0.03 -0.02,0.03c0,0 -0.01,0 -0.01,-0.01l0,0z" fill-rule = "nonzero" clip-path = "url(#SvgjsClipPath1025222b9f54cd-693c-4f16-9402-18c874e5728e)" transform = "matrix(669.8529,0,0,669.8539,-1366.799,225.604)" vector-effect="non-scaling-stroke" pen = "855.0512,855.052" />
</g>
<g id="group_60">
<path style="fill:#225777;stroke:none; stroke-width:1" d="m3.06,0.02c-0.02,0 -0.05,0.03 -0.06,0.06c0,0 0.01,0 0.01,0c0,-0.01 0.03,-0.04 0.05,-0.05c0,0 0,-0.01 0,-0.01l0,0l0,0z" fill-rule = "nonzero" clip-path = "url(#SvgjsClipPath1025222b9f54cd-693c-4f16-9402-18c874e5728e)" transform = "matrix(669.8536,0,0,669.8535,-1366.799,225.604)" vector-effect="non-scaling-stroke" pen = "855.0516,855.0518" />
</g>
<g id="group_61">
<path style="fill:#225777;stroke:none; stroke-width:1" d="m3.1,0.13c0,0 0.01,0 0,0.01c0,0.01 -0.01,0.04 -0.02,0.05c0,0 -0.01,0 -0.01,0c0,-0.01 0.02,-0.06 0.02,-0.06z" fill-rule = "nonzero" clip-path = "url(#SvgjsClipPath1025222b9f54cd-693c-4f16-9402-18c874e5728e)" transform = "matrix(669.8531,0,0,669.8535,-1366.798,225.604)" vector-effect="non-scaling-stroke" pen = "855.0507,855.0519" />
</g>
<g id="group_62">
<path style="fill:#ECECD9;stroke:none; stroke-width:1" d="m3.11,0.11c0,0.01 0,0.03 0.01,0.04c0.01,0.01 0.02,0 0.03,0c0,-0.01 0.01,-0.02 0,-0.02c-0.01,-0.01 -0.03,-0.01 -0.04,-0.01z" fill-rule = "nonzero" clip-path = "url(#SvgjsClipPath1025222b9f54cd-693c-4f16-9402-18c874e5728e)" transform = "matrix(669.8537,0,0,669.8537,-1366.799,225.604)" vector-effect="non-scaling-stroke" pen = "855.0519,855.0516" />
</g>
<g id="group_63">
<path style="fill:#ECECD9;stroke:none; stroke-width:1" d="m3.13,0.1c0.01,0.01 0.02,0.02 0.04,0.02c0.01,0 0.02,-0.02 0.02,-0.02c0,-0.01 -0.01,-0.02 -0.02,-0.01c-0.01,0 -0.03,0.01 -0.03,0.02l0,0z" fill-rule = "nonzero" clip-path = "url(#SvgjsClipPath1025222b9f54cd-693c-4f16-9402-18c874e5728e)" transform = "matrix(669.8528,0,0,669.8535,-1366.799,225.604)" vector-effect="non-scaling-stroke" pen = "855.0513,855.0515" />
</g>
<g id="group_64">
<path style="fill:#ECECD9;stroke:none; stroke-width:1" d="m3.09,0.11c-0.01,0 -0.03,0 -0.03,0.01c-0.01,0.01 0,0.02 0,0.02c0.01,0 0.01,0.01 0.02,0c0.01,-0.01 0.01,-0.02 0.01,-0.03z" fill-rule = "nonzero" clip-path = "url(#SvgjsClipPath1025222b9f54cd-693c-4f16-9402-18c874e5728e)" transform = "matrix(669.8538,0,0,669.8532,-1366.799,225.604)" vector-effect="non-scaling-stroke" pen = "855.0522,855.0516" />
</g>
<g id="group_65">
<path style="fill:#ECECD9;stroke:none; stroke-width:1" d="m3.09,0.09c0,-0.01 -0.01,-0.03 -0.03,-0.03c-0.01,0 -0.02,0.01 -0.03,0.02c0,0.01 0,0.02 0.01,0.02c0.01,0 0.03,0 0.04,0l0,0z" fill-rule = "nonzero" clip-path = "url(#SvgjsClipPath1025222b9f54cd-693c-4f16-9402-18c874e5728e)" transform = "matrix(669.8528,0,0,669.8539,-1366.798,225.6039)" vector-effect="non-scaling-stroke" pen = "855.0509,855.0523" />
</g>
<g id="group_66">
<path style="fill:#ECECD9;stroke:none; stroke-width:1" d="m3.1,0.09c0.01,0 0.03,-0.02 0.04,-0.03c0,-0.02 -0.01,-0.03 -0.02,-0.03c-0.01,0 -0.02,0 -0.03,0.02c0,0.01 0,0.04 0.01,0.05l0,0l0,0z" fill-rule = "nonzero" clip-path = "url(#SvgjsClipPath1025222b9f54cd-693c-4f16-9402-18c874e5728e)" transform = "matrix(669.8537,0,0,669.8538,-1366.799,225.604)" vector-effect="non-scaling-stroke" pen = "855.0515,855.0518" />
</g>
<g id="group_67">
<path style="fill:#225777;stroke:none; stroke-width:1" d="m2.94,0.4l-0.02,0c-0.01,0.04 -0.01,0.09 -0.01,0.11c0,0.02 0,0.16 0,0.16l0.01,0c0,-0.11 0,-0.12 0,-0.15c0,-0.05 0.02,-0.09 0.02,-0.12z" fill-rule = "nonzero" clip-path = "url(#SvgjsClipPath1025222b9f54cd-693c-4f16-9402-18c874e5728e)" transform = "matrix(669.8533,0,0,669.8533,-1366.798,225.604)" vector-effect="non-scaling-stroke" pen = "855.0517,855.0515" />
</g>
<g id="group_68">
<path style="fill:#225777;stroke:none; stroke-width:1" d="m2.96,0.53l0.01,0.01c-0.01,0.01 -0.02,0.02 -0.02,0.03c0,0 -0.01,0 -0.01,0c0,-0.01 0.01,-0.02 0.02,-0.04z" fill-rule = "nonzero" clip-path = "url(#SvgjsClipPath1025222b9f54cd-693c-4f16-9402-18c874e5728e)" transform = "matrix(669.8525,0,0,669.8538,-1366.799,225.6041)" vector-effect="non-scaling-stroke" pen = "855.0508,855.0517" />
</g>
<g id="group_69">
<path style="fill:#225777;stroke:none; stroke-width:1" d="m2.94,0.63c0.02,-0.03 0.06,-0.07 0.12,-0.09c0.05,-0.02 0.1,-0.04 0.14,-0.05c0.01,0 0,0.01 0,0.01c-0.03,0.01 -0.07,0.01 -0.14,0.05c-0.07,0.03 -0.09,0.07 -0.11,0.08c0,0.01 -0.01,0 -0.01,0l0,0z" fill-rule = "nonzero" clip-path = "url(#SvgjsClipPath1025222b9f54cd-693c-4f16-9402-18c874e5728e)" transform = "matrix(669.8536,0,0,669.8535,-1366.799,225.604)" vector-effect="non-scaling-stroke" pen = "855.0517,855.0517" />
</g>
<g id="group_70">
<path style="fill:#ECECD9;stroke:none; stroke-width:1" d="m2.96,1.08l-0.13,0c-0.02,0 -0.03,0.01 -0.04,0.03l0.21,0c-0.01,-0.02 -0.02,-0.03 -0.04,-0.03l0,0z" fill-rule = "nonzero" clip-path = "url(#SvgjsClipPath1025222b9f54cd-693c-4f16-9402-18c874e5728e)" transform = "matrix(669.8533,0,0,669.8536,-1366.798,225.6039)" vector-effect="non-scaling-stroke" pen = "855.0511,855.0516" />
</g>
<g id="group_71">
<path style="fill:#3A868F;stroke:none; stroke-width:1" d="m2.84,1.04l0.11,0l0,0.02l-0.11,0l0,-0.02z" fill-rule = "nonzero" clip-path = "url(#SvgjsClipPath1025222b9f54cd-693c-4f16-9402-18c874e5728e)" transform = "matrix(669.8532,0,0,669.8531,-1366.798,225.604)" vector-effect="non-scaling-stroke" pen = "855.0511,855.0513" />
</g>
<g id="group_72">
<path style="fill:#ECECD9;stroke:none; stroke-width:1" d="m2.95,0.78l0,0c0,0.05 0,0.11 -0.02,0.16c-0.01,0.03 -0.02,0.05 -0.03,0.07c0,0 0,0 0,0c0,-0.02 0.01,-0.09 0.01,-0.13c0,-0.04 0,-0.12 0,-0.12c0,0 0.01,0.01 0.04,0.03l0,0z" fill-rule = "nonzero" clip-path = "url(#SvgjsClipPath1025222b9f54cd-693c-4f16-9402-18c874e5728e)" transform = "matrix(669.8532,0,0,669.8536,-1366.799,225.604)" vector-effect="non-scaling-stroke" pen = "855.0511,855.0519" />
</g>
<g id="group_73">
<path style="fill:#ECECD9;stroke:none; stroke-width:1" d="m2.96,0.89c0,-0.02 0.01,-0.08 0.01,-0.1c0.01,0.01 0.02,0.01 0.03,0.02c0,0.04 -0.01,0.08 -0.01,0.1c0,0.02 -0.02,0.07 -0.06,0.09c0.02,-0.04 0.03,-0.07 0.03,-0.11l0,0z" fill-rule = "nonzero" clip-path = "url(#SvgjsClipPath1025222b9f54cd-693c-4f16-9402-18c874e5728e)" transform = "matrix(669.8527,0,0,669.8537,-1366.798,225.6039)" vector-effect="non-scaling-stroke" pen = "855.0508,855.0518" />
</g>
<g id="group_74">
<path style="fill:#ECECD9;stroke:none; stroke-width:1" d="m2.94,0.71l0.11,0c0,0 0,-0.02 0,-0.02l-0.11,0c0,0 0,-0.01 -0.01,-0.01c0.04,-0.02 0.05,-0.03 0.08,-0.04c0.01,0 0.03,0 0.04,0c0.02,0 0.03,0.01 0.03,0.03l0,0.06c0,0.03 -0.02,0.06 -0.05,0.06c0,0 0,0 0,0c-0.03,0 -0.05,-0.01 -0.05,-0.02c-0.01,0 -0.03,-0.02 -0.04,-0.03c0.01,-0.01 0.01,-0.02 0.01,-0.03l0,0z" fill-rule = "nonzero" clip-path = "url(#SvgjsClipPath1025222b9f54cd-693c-4f16-9402-18c874e5728e)" transform = "matrix(669.8533,0,0,669.8542,-1366.799,225.604)" vector-effect="non-scaling-stroke" pen = "855.0515,855.0527" />
</g>
<g id="group_75">
<path style="fill:#173054;stroke:none; stroke-width:1" d="m3.02,0.59c0.04,-0.01 0.06,0 0.09,0.03c-0.03,0 -0.06,0 -0.09,-0.03z" fill-rule = "nonzero" clip-path = "url(#SvgjsClipPath1025222b9f54cd-693c-4f16-9402-18c874e5728e)" transform = "matrix(669.8533,0,0,669.8533,-1366.798,225.604)" vector-effect="non-scaling-stroke" pen = "855.0516,855.0516" />
</g>
<g id="group_76">
<path style="fill:#173054;stroke:none; stroke-width:1" d="m3.07,0.56c0.01,0.01 0.05,0.04 0.1,0.04c-0.01,-0.01 -0.03,-0.06 -0.1,-0.04z" fill-rule = "nonzero" clip-path = "url(#SvgjsClipPath1025222b9f54cd-693c-4f16-9402-18c874e5728e)" transform = "matrix(669.8537,0,0,669.854,-1366.8,225.604)" vector-effect="non-scaling-stroke" pen = "855.0521,855.0524" />
</g>
<g id="group_77">
<path style="fill:#173054;stroke:none; stroke-width:1" d="m3.15,0.53c0.02,0.01 0.05,0.06 0.14,0.03c-0.02,-0.03 -0.06,-0.07 -0.14,-0.03z" fill-rule = "nonzero" clip-path = "url(#SvgjsClipPath1025222b9f54cd-693c-4f16-9402-18c874e5728e)" transform = "matrix(669.853,0,0,669.8539,-1366.798,225.6039)" vector-effect="non-scaling-stroke" pen = "855.0513,855.052" />
</g>
<g id="group_78">
<path style="fill:#173054;stroke:none; stroke-width:1" d="m3.22,0.49c0.05,0 0.11,0.02 0.15,-0.07c-0.06,0 -0.09,0.01 -0.15,0.07z" fill-rule = "nonzero" clip-path = "url(#SvgjsClipPath1025222b9f54cd-693c-4f16-9402-18c874e5728e)" transform = "matrix(669.8533,0,0,669.8535,-1366.799,225.6038)" vector-effect="non-scaling-stroke" pen = "855.0516,855.0513" />
</g>
<g id="group_79">
<path style="fill:#173054;stroke:none; stroke-width:1" d="m3.19,0.47c0,-0.03 0.02,-0.06 0.07,-0.07c-0.01,0.03 -0.03,0.06 -0.07,0.07z" fill-rule = "nonzero" clip-path = "url(#SvgjsClipPath1025222b9f54cd-693c-4f16-9402-18c874e5728e)" transform = "matrix(669.8531,0,0,669.8531,-1366.798,225.6039)" vector-effect="non-scaling-stroke" pen = "855.0514,855.051" />
</g>
<g id="group_80">
<path style="fill:#173054;stroke:none; stroke-width:1" d="m3.08,0.5c0,-0.02 0.01,-0.03 0.03,-0.04c0,0.01 0,0.04 -0.03,0.04z" fill-rule = "nonzero" clip-path = "url(#SvgjsClipPath1025222b9f54cd-693c-4f16-9402-18c874e5728e)" transform = "matrix(669.8534,0,0,669.8538,-1366.797,225.604)" vector-effect="non-scaling-stroke" pen = "855.0513,855.0524" />
</g>
<g id="group_81">
<path style="fill:#173054;stroke:none; stroke-width:1" d="m3.13,0.48c0,-0.02 -0.01,-0.04 0.03,-0.06c0,0.03 0,0.05 -0.03,0.06z" fill-rule = "nonzero" clip-path = "url(#SvgjsClipPath1025222b9f54cd-693c-4f16-9402-18c874e5728e)" transform = "matrix(669.8534,0,0,669.8528,-1366.798,225.604)" vector-effect="non-scaling-stroke" pen = "855.0515,855.051" />
</g>
<g id="group_82">
<path style="fill:#173054;stroke:none; stroke-width:1" d="m2.97,0.53c0.02,-0.01 0.02,-0.02 0.05,-0.02c-0.01,0.03 -0.03,0.03 -0.05,0.02z" fill-rule = "nonzero" clip-path = "url(#SvgjsClipPath1025222b9f54cd-693c-4f16-9402-18c874e5728e)" transform = "matrix(669.853,0,0,669.8534,-1366.799,225.6041)" vector-effect="non-scaling-stroke" pen = "855.0514,855.0515" />
</g>
<g id="group_83">
<path style="fill:#173054;stroke:none; stroke-width:1" d="m2.96,0.51c-0.01,-0.02 0,-0.03 0.01,-0.05c0.01,0.02 0.01,0.03 -0.01,0.05z" fill-rule = "nonzero" clip-path = "url(#SvgjsClipPath1025222b9f54cd-693c-4f16-9402-18c874e5728e)" transform = "matrix(669.854,0,0,669.8541,-1366.8,225.604)" vector-effect="non-scaling-stroke" pen = "855.0524,855.0523" />
</g>
<g id="group_84">
<path style="fill:#173054;stroke:none; stroke-width:1" d="m3.01,0.47c0.02,-0.02 0.03,-0.03 0.05,-0.01c-0.01,0.02 -0.03,0.02 -0.05,0.01z" fill-rule = "nonzero" clip-path = "url(#SvgjsClipPath1025222b9f54cd-693c-4f16-9402-18c874e5728e)" transform = "matrix(669.853,0,0,669.8541,-1366.798,225.604)" vector-effect="non-scaling-stroke" pen = "855.0509,855.0521" />
</g>
<g id="group_85">
<path style="fill:#173054;stroke:none; stroke-width:1" d="m2.99,0.46c-0.02,-0.03 -0.01,-0.06 0.01,-0.08c0.01,0.03 0.01,0.06 -0.01,0.08z" fill-rule = "nonzero" clip-path = "url(#SvgjsClipPath1025222b9f54cd-693c-4f16-9402-18c874e5728e)" transform = "matrix(669.8528,0,0,669.8537,-1366.798,225.6041)" vector-effect="non-scaling-stroke" pen = "855.0513,855.0522" />
</g>
<g id="group_86">
<path style="fill:#173054;stroke:none; stroke-width:1" d="m3.03,0.41c0.01,-0.04 0.03,-0.05 0.06,-0.06c0,0.04 -0.04,0.05 -0.06,0.06z" fill-rule = "nonzero" clip-path = "url(#SvgjsClipPath1025222b9f54cd-693c-4f16-9402-18c874e5728e)" transform = "matrix(669.8535,0,0,669.8533,-1366.8,225.6041)" vector-effect="non-scaling-stroke" pen = "855.0521,855.0515" />
</g>
<g id="group_87">
<path style="fill:#173054;stroke:none; stroke-width:1" d="m3.06,0.42c0.02,-0.01 0.03,-0.04 0.09,-0.04c-0.01,0.03 -0.04,0.05 -0.09,0.04z" fill-rule = "nonzero" clip-path = "url(#SvgjsClipPath1025222b9f54cd-693c-4f16-9402-18c874e5728e)" transform = "matrix(669.853,0,0,669.8538,-1366.798,225.6041)" vector-effect="non-scaling-stroke" pen = "855.051,855.0522" />
</g>
<g id="group_88">
<path style="fill:#173054;stroke:none; stroke-width:1" d="m3.16,0.37c0.02,-0.01 0.03,-0.02 0.08,-0.02c-0.02,0.03 -0.06,0.03 -0.08,0.02z" fill-rule = "nonzero" clip-path = "url(#SvgjsClipPath1025222b9f54cd-693c-4f16-9402-18c874e5728e)" transform = "matrix(669.8538,0,0,669.8535,-1366.799,225.604)" vector-effect="non-scaling-stroke" pen = "855.0519,855.0519" />
</g>
<g id="group_89">
<path style="fill:#173054;stroke:none; stroke-width:1" d="m3.1,0.34c0.03,-0.04 0.04,-0.05 0.09,-0.05c-0.03,0.05 -0.07,0.05 -0.09,0.05z" fill-rule = "nonzero" clip-path = "url(#SvgjsClipPath1025222b9f54cd-693c-4f16-9402-18c874e5728e)" transform = "matrix(669.8535,0,0,669.8534,-1366.798,225.6038)" vector-effect="non-scaling-stroke" pen = "855.0512,855.0513" />
</g>
<g id="group_90">
<path style="fill:#173054;stroke:none; stroke-width:1" d="m3.08,0.32c-0.01,-0.05 0,-0.07 0.03,-0.11c0.02,0.05 -0.01,0.08 -0.03,0.11z" fill-rule = "nonzero" clip-path = "url(#SvgjsClipPath1025222b9f54cd-693c-4f16-9402-18c874e5728e)" transform = "matrix(669.8537,0,0,669.8536,-1366.799,225.6039)" vector-effect="non-scaling-stroke" pen = "855.0518,855.0519" />
</g>
<g id="group_91">
<path style="fill:#173054;stroke:none; stroke-width:1" d="m3.2,0.33c0.02,-0.03 0.04,-0.07 0.11,-0.06c-0.04,0.06 -0.08,0.05 -0.11,0.06z" fill-rule = "nonzero" clip-path = "url(#SvgjsClipPath1025222b9f54cd-693c-4f16-9402-18c874e5728e)" transform = "matrix(669.8533,0,0,669.8539,-1366.799,225.604)" vector-effect="non-scaling-stroke" pen = "855.0511,855.052" />
</g>
<g id="group_92">
<path style="fill:#173054;stroke:none; stroke-width:1" d="m3.15,0.26c0.02,-0.02 0.03,-0.03 0.07,-0.03c-0.02,0.03 -0.06,0.03 -0.07,0.03z" fill-rule = "nonzero" clip-path = "url(#SvgjsClipPath1025222b9f54cd-693c-4f16-9402-18c874e5728e)" transform = "matrix(669.8531,0,0,669.8525,-1366.799,225.6039)" vector-effect="non-scaling-stroke" pen = "855.0513,855.0511" />
</g>
<g id="group_93">
<path style="fill:#173054;stroke:none; stroke-width:1" d="m3.16,0.22c0.01,-0.08 0.07,-0.11 0.11,-0.11c0,0.12 -0.08,0.09 -0.11,0.11z" fill-rule = "nonzero" clip-path = "url(#SvgjsClipPath1025222b9f54cd-693c-4f16-9402-18c874e5728e)" transform = "matrix(669.8535,0,0,669.8535,-1366.799,225.604)" vector-effect="non-scaling-stroke" pen = "855.0515,855.0515" />
</g>
</g>
</g>
</svg>
